<svg width="60" height="64" viewBox="0 0 60 64" fill="none" xmlns="http://www.w3.org/2000/svg">
<path d="M58.5942 43.9371L56.4608 41.8037C54.8213 40.1642 52.3232 40.1675 50.686 41.8037L36.7104 55.7792C36.5109 55.9787 36.3979 56.2507 36.3979 56.5333V62.9333C36.3979 63.5221 36.8758 64 37.4646 64H43.8646C44.1472 64 44.4192 63.887 44.6187 63.6875L58.5942 49.712C60.2934 48.0127 60.2934 45.6373 58.5942 43.9371ZM49.3067 46.1995L50.9985 47.8912L41.7312 57.1585L40.0395 55.4667L49.3067 46.1995ZM38.5313 61.8666V56.9748L43.4231 61.8666H38.5313ZM44.9313 60.3583L43.2396 58.6666L52.5068 49.3993L54.1986 51.0911L44.9313 60.3583ZM57.0859 48.2037L55.7067 49.583L50.8149 44.6912L52.1942 43.312C53.0368 42.4703 54.1057 42.4661 54.9526 43.312L57.0859 45.4453C57.9488 46.3093 57.9488 47.3407 57.0859 48.2037Z" fill="#E31E25"/>
<path d="M44.9314 39.4666C44.9314 38.8779 44.4536 38.4 43.8648 38.4H37.4648C36.8761 38.4 36.3982 38.8779 36.3982 39.4666C36.3982 40.0554 36.8761 40.5333 37.4648 40.5333H43.8648C44.4536 40.5334 44.9314 40.0555 44.9314 39.4666Z" fill="#BBBBBB"/>
<path d="M40.6645 11.7334V6.4C40.6645 5.81125 40.1866 5.33337 39.5979 5.33337C39.0091 5.33337 38.5312 5.81125 38.5312 6.4V11.7334C38.5312 14.6741 40.9237 17.0667 43.8646 17.0667H53.4646V37.3334C53.4646 37.9221 53.9425 38.4 54.5313 38.4C55.12 38.4 55.5979 37.9221 55.5979 37.3334V16C55.5979 15.4112 55.12 14.9334 54.5313 14.9334H43.8646C42.1003 14.9334 40.6645 13.4976 40.6645 11.7334Z" fill="#BBBBBB"/>
<path d="M43.8646 25.6H35.3313C34.7425 25.6 34.2646 26.0779 34.2646 26.6666C34.2646 27.2554 34.7425 27.7332 35.3313 27.7332H43.8646C44.4534 27.7332 44.9313 27.2554 44.9313 26.6666C44.9314 26.0779 44.4535 25.6 43.8646 25.6Z" fill="#BBBBBB"/>
<path d="M32.1314 26.6666C32.1314 26.0779 31.6535 25.6 31.0648 25.6H24.6648C24.076 25.6 23.5981 26.0779 23.5981 26.6666C23.5981 27.2554 24.076 27.7332 24.6648 27.7332H31.0648C31.6535 27.7334 32.1314 27.2555 32.1314 26.6666Z" fill="#BBBBBB"/>
<path d="M24.6645 32C24.0758 32 23.5979 32.4779 23.5979 33.0666C23.5979 33.6554 24.0758 34.1333 24.6645 34.1333H26.7979C27.3867 34.1333 27.8645 33.6554 27.8645 33.0666C27.8645 32.4779 27.3867 32 26.7979 32H24.6645Z" fill="#BBBBBB"/>
<path d="M24.6645 21.3333H35.3312C35.9199 21.3333 36.3978 20.8555 36.3978 20.2667C36.3978 19.6779 35.9199 19.2001 35.3312 19.2001H24.6645C24.0758 19.2001 23.5979 19.6779 23.5979 20.2667C23.5979 20.8555 24.0758 21.3333 24.6645 21.3333Z" fill="#BBBBBB"/>
<path d="M31.0647 34.1334H41.7313C42.32 34.1334 42.7979 33.6555 42.7979 33.0667C42.7979 32.478 42.32 32.0001 41.7313 32.0001H31.0647C30.4759 32.0001 29.998 32.478 29.998 33.0667C29.998 33.6555 30.4759 34.1334 31.0647 34.1334Z" fill="#BBBBBB"/>
<path d="M37.4646 44.7999C36.8758 44.7999 36.3979 45.2778 36.3979 45.8666C36.3979 46.4553 36.8758 46.9332 37.4646 46.9332H39.5979C40.1867 46.9332 40.6646 46.4553 40.6646 45.8666C40.6646 45.2778 40.1867 44.7999 39.5979 44.7999H37.4646Z" fill="#BBBBBB"/>
<path d="M33.1979 38.4H24.6645C24.0758 38.4 23.5979 38.8779 23.5979 39.4666C23.5979 40.0554 24.0758 40.5333 24.6645 40.5333H33.1979C33.7867 40.5333 34.2645 40.0554 34.2645 39.4666C34.2645 38.8779 33.7867 38.4 33.1979 38.4Z" fill="#BBBBBB"/>
<path d="M33.1979 44.7999H24.6645C24.0758 44.7999 23.5979 45.2778 23.5979 45.8666C23.5979 46.4553 24.0758 46.9332 24.6645 46.9332H33.1979C33.7867 46.9332 34.2645 46.4553 34.2645 45.8666C34.2645 45.2778 33.7867 44.7999 33.1979 44.7999Z" fill="#BBBBBB"/>
<path d="M33.198 61.8666H5.4646C3.70035 61.8666 2.2646 60.4309 2.2646 58.6666V5.33337C2.2646 3.56912 3.70035 2.13337 5.4646 2.13337H39.1564L49.5105 12.4875C49.9275 12.9046 50.6017 12.9046 51.0187 12.4875C51.4359 12.0705 51.4359 11.3962 51.0187 10.9792L40.3521 0.3125C40.1526 0.112 39.8806 0 39.598 0H5.4646C2.52385 0 0.131348 2.3925 0.131348 5.33337V58.6668C0.131348 61.6075 2.52385 64.0001 5.46472 64.0001H33.1981C33.7869 64.0001 34.2647 63.5222 34.2647 62.9335C34.2647 62.3447 33.7867 61.8666 33.198 61.8666Z" fill="#BBBBBB"/>
<path d="M33.1979 51.2001H24.6645C24.0758 51.2001 23.5979 51.6779 23.5979 52.2667C23.5979 52.8554 24.0758 53.3333 24.6645 53.3333H33.1979C33.7867 53.3333 34.2645 52.8554 34.2645 52.2667C34.2645 51.6779 33.7867 51.2001 33.1979 51.2001Z" fill="#BBBBBB"/>
<path d="M19.3313 20.2667C19.3313 19.6779 18.8535 19.2001 18.2647 19.2001H11.8647C11.276 19.2001 10.7981 19.6779 10.7981 20.2667V26.6667C10.7981 27.2554 11.276 27.7333 11.8647 27.7333H18.2647C18.8535 27.7333 19.3313 27.2554 19.3313 26.6667V20.2667ZM17.198 25.6001H12.9313V21.3334H17.198V25.6001Z" fill="#BBBBBB"/>
<path d="M11.8645 53.3334H18.2645C18.8532 53.3334 19.3311 52.8555 19.3311 52.2668V45.8668C19.3311 45.278 18.8532 44.8002 18.2645 44.8002H11.8645C11.2757 44.8002 10.7979 45.278 10.7979 45.8668V52.2668C10.7979 52.8555 11.2757 53.3334 11.8645 53.3334ZM12.9312 46.9334H17.1979V51.2H12.9312V46.9334Z" fill="#BBBBBB"/>
<path d="M13.2438 40.2208C13.4443 40.4213 13.7163 40.5333 13.9979 40.5333C14.0332 40.5333 14.0673 40.5323 14.1035 40.5279C14.4214 40.497 14.7083 40.3242 14.8854 40.0585L19.152 33.6586C19.4784 33.1679 19.3462 32.5054 18.8565 32.1791C18.3648 31.8516 17.7045 31.9849 17.377 32.4746L13.8325 37.7919L12.6187 36.5792C12.2017 36.1621 11.5274 36.1621 11.1104 36.5792C10.6934 36.9963 10.6933 37.6704 11.1104 38.0874L13.2438 40.2208Z" fill="#E31E25"/>
</svg>
