<svg width="64" height="58" viewBox="0 0 64 58" fill="none" xmlns="http://www.w3.org/2000/svg">
<path d="M30.0964 14.0909C30.0836 13.5336 29.704 13.052 29.1651 12.9099L17.2462 9.76662C17.2453 9.76625 17.2443 9.76612 17.2435 9.76587L12.7546 8.582C12.2229 8.4415 11.6607 8.666 11.3717 9.13462C9.57381 12.0509 8.15993 15.2953 7.28293 18.5173C5.81893 23.8945 6.06743 28.5077 8.00156 31.8579C9.12056 33.7963 10.7627 35.2188 12.7917 36.0292L8.19606 52.9106L1.56905 51.1628C0.902045 50.9868 0.217669 51.3851 0.0416688 52.0527C-0.134457 52.7202 0.263919 53.4041 0.931545 53.5802C0.932171 53.5803 8.74731 55.6416 8.74794 55.6418C8.74856 55.642 16.5831 57.7082 16.5838 57.7083C16.6906 57.7365 16.7978 57.75 16.9035 57.75C17.4573 57.75 17.9635 57.3791 18.1112 56.8185C18.2873 56.151 17.889 55.4671 17.2213 55.291L10.6136 53.5482L15.2083 36.6703C15.6587 36.7327 16.1094 36.7648 16.5571 36.7648C22.131 36.7648 26.7343 32.0793 28.871 24.231C29.7482 21.0084 30.1719 17.5019 30.0964 14.0909ZM26.4585 23.5744C24.6361 30.2683 20.9347 34.2648 16.5568 34.2648C15.9192 34.2648 15.2699 34.1788 14.6268 34.0092C12.7003 33.501 11.1579 32.3249 10.1668 30.6079C8.99094 28.571 8.59506 25.8839 8.98394 22.7189C10.6529 22.9904 12.2289 23.0956 13.7226 23.0956C16.1806 23.0956 18.4201 22.8184 20.5021 22.5606C22.8507 22.2699 24.9351 22.013 26.7876 22.2448C26.6867 22.6928 26.5776 23.1366 26.4585 23.5744ZM27.2441 19.7849C25.0282 19.4833 22.6688 19.7734 20.1952 20.0796C17.0315 20.4713 13.4839 20.9101 9.42306 20.2593C9.50544 19.902 9.59544 19.5406 9.69531 19.174C10.4318 16.4683 11.5773 13.743 13.0264 11.2393L15.0126 11.7631C14.6526 12.4569 14.3206 13.1696 14.0619 13.75C13.7809 14.3805 14.0643 15.1195 14.6948 15.4006C14.8602 15.4744 15.0329 15.5093 15.2029 15.5093C15.6813 15.5093 16.1381 15.233 16.3454 14.7679C16.7498 13.8606 17.145 13.0558 17.4973 12.4184L27.6043 15.0839C27.594 16.6523 27.4718 18.2331 27.2441 19.7849Z" fill="#BBBBBB"/>
<path d="M55.252 55.6418C55.2515 55.6421 55.2509 55.6421 55.2504 55.6422L47.4785 57.692C48.2101 57.4989 55.2527 55.6417 55.252 55.6418Z" fill="#E31E25"/>
<path d="M47.4786 57.6917C47.4385 57.7023 47.4163 57.7081 47.4163 57.7081L47.4786 57.6917Z" fill="#E31E25"/>
<path d="M63.9583 52.0526C63.7824 51.3851 63.0979 50.9871 62.4309 51.1628L55.8038 52.9105L51.2081 36.0289C53.2371 35.2185 54.8793 33.796 55.9981 31.8576C57.9323 28.5073 58.1808 23.8942 56.7169 18.5171C55.8398 15.2951 54.4259 12.0507 52.628 9.13442C52.3389 8.6658 51.7771 8.44117 51.2451 8.5818L34.8348 12.9098C34.296 13.0519 33.9162 13.5336 33.9038 14.0908C33.8358 17.1602 34.1733 20.3058 34.8806 23.2532C34.8885 23.2946 34.8982 23.3356 34.9101 23.3757C34.9802 23.6626 35.0523 23.9483 35.1293 24.2311C37.2656 32.0787 41.8687 36.7644 47.4429 36.7649C47.4431 36.7649 47.4434 36.7649 47.4437 36.7649C47.8911 36.7649 48.3417 36.7327 48.7919 36.6704L53.3866 53.5483L46.7789 55.291C46.1112 55.467 45.7129 56.1509 45.889 56.8185C46.0369 57.3793 46.543 57.75 47.0967 57.75C47.2022 57.75 47.3096 57.7365 47.4164 57.7084L55.2501 55.6421C55.2503 55.6421 55.2504 55.6421 55.2505 55.6421L63.0686 53.5803C63.736 53.4041 64.1344 52.7201 63.9583 52.0526ZM36.3958 15.0834L50.9734 11.2389C52.4226 13.7427 53.5681 16.4679 54.3046 19.1738C54.5183 19.9586 54.691 20.7217 54.8246 21.4622C54.0643 21.3868 53.2894 21.3752 52.5 21.4067C52.3659 20.4916 52.1682 19.5377 52 18.7978C51.8471 18.1247 51.177 17.7028 50.5041 17.8559C49.8309 18.0089 49.4091 18.6787 49.5622 19.3519C49.7519 20.1861 49.901 20.9547 50.0026 21.6132C49.4366 21.6777 48.8645 21.7505 48.2857 21.8242C45.0406 22.2383 41.3872 22.704 37.1458 21.9474C36.6665 19.7214 36.4106 17.3892 36.3958 15.0834ZM47.4437 34.2646C47.4435 34.2646 47.4432 34.2646 47.4431 34.2646C43.2907 34.2642 39.7481 30.6672 37.8392 24.5855C39.2328 24.7766 40.5586 24.8545 41.8225 24.8545C44.288 24.8545 46.5242 24.5691 48.6024 24.304C51.0532 23.9913 53.2129 23.7162 55.133 24.0181C55.2786 26.6225 54.8444 28.8557 53.833 30.6076C52.8417 32.3246 51.2995 33.5008 49.373 34.0088C48.7299 34.1787 48.0809 34.2646 47.4437 34.2646Z" fill="#E31E25"/>
<path d="M32 0.250244C31.3098 0.250244 30.75 0.80987 30.75 1.50025V4.76063C30.75 5.451 31.3098 6.01063 32 6.01063C32.6903 6.01063 33.25 5.451 33.25 4.76063V1.50025C33.25 0.80987 32.6904 0.250244 32 0.250244Z" fill="#BBBBBB"/>
<path d="M27.9533 6.38045L26.297 3.55682C25.9476 2.96132 25.1819 2.76157 24.5862 3.11107C23.9907 3.46032 23.7912 4.22619 24.1405 4.8217L25.7967 7.64533C26.0295 8.04208 26.4471 8.26308 26.8763 8.26308C27.0911 8.26308 27.3088 8.2077 27.5075 8.09108C28.103 7.74183 28.3025 6.97595 27.9533 6.38045Z" fill="#E31E25"/>
<path d="M39.4138 3.11101C38.8182 2.76164 38.0524 2.96126 37.7031 3.55676L36.0468 6.38039C35.6974 6.97577 35.8971 7.74177 36.4926 8.09102C36.6913 8.20765 36.9089 8.26302 37.1238 8.26302C37.5528 8.26302 37.9704 8.04202 38.2033 7.64527L39.8596 4.82164C40.2088 4.22614 40.0092 3.46026 39.4138 3.11101Z" fill="#E31E25"/>
<path d="M51.0708 15.3423C51.0702 15.3407 51.0692 15.3376 51.0683 15.3347C50.8642 14.6806 50.1704 14.3118 49.5137 14.5102C48.8527 14.7097 48.4787 15.4072 48.6782 16.0681C48.6804 16.0747 48.6842 16.087 48.6864 16.0942C48.8552 16.6265 49.347 16.967 49.8777 16.967C50.0015 16.967 50.1277 16.9483 50.2522 16.9092C50.9109 16.7026 51.2773 16.0011 51.0708 15.3423Z" fill="#E31E25"/>
<path d="M13.7498 18.7495C14.4401 18.7495 14.9998 18.1899 14.9998 17.4995C14.9998 16.8092 14.4401 16.2495 13.7498 16.2495C13.0594 16.2495 12.4998 16.8092 12.4998 17.4995C12.4998 18.1899 13.0594 18.7495 13.7498 18.7495Z" fill="#BBBBBB"/>
</svg>
