<svg width="60" height="64" viewBox="0 0 60 64" fill="none" xmlns="http://www.w3.org/2000/svg">
<path d="M30 9.48145C18.89 9.48145 9.85181 18.5197 9.85181 29.6296C9.85181 38.0586 15.056 45.5253 22.8888 48.474V59.2592C22.8888 59.9146 23.4186 60.4444 24.074 60.4444H25.2592V62.8148C25.2592 63.4702 25.789 64 26.4444 64H33.5555C34.2109 64 34.7407 63.4702 34.7407 62.8148V60.4444H35.9259C36.5813 60.4444 37.1111 59.9146 37.1111 59.2592V48.474C44.944 45.5253 50.1481 38.0586 50.1481 29.6296C50.1481 18.5197 41.1099 9.48145 30 9.48145ZM33.5555 58.074C32.9001 58.074 32.3703 58.6038 32.3703 59.2592V61.6296H27.6296V59.2592C27.6296 58.6038 27.0998 58.074 26.4444 58.074H25.2592V52.1481H34.7407V58.074H33.5555ZM35.5561 46.509C35.069 46.669 34.7407 47.1241 34.7407 47.6349V49.7777H25.2592V47.6349C25.2592 47.1229 24.9309 46.669 24.4438 46.509C17.1348 44.1054 12.2222 37.3214 12.2222 29.6296C12.2222 19.8269 20.1973 11.8518 30 11.8518C39.8026 11.8518 47.7777 19.8269 47.7777 29.6296C47.7777 37.3214 42.8651 44.1054 35.5561 46.509Z" fill="#BBBBBB"/>
<path d="M29.9999 7.11111C30.6553 7.11111 31.1851 6.58133 31.1851 5.92593V1.18519C31.1851 0.529778 30.6553 0 29.9999 0C29.3445 0 28.8147 0.529778 28.8147 1.18519V5.92593C28.8147 6.58133 29.3445 7.11111 29.9999 7.11111Z" fill="#E31E25"/>
<path d="M58.4445 28.4443H53.7037C53.0483 28.4443 52.5186 28.9741 52.5186 29.6295C52.5186 30.2849 53.0483 30.8147 53.7037 30.8147H58.4445C59.0999 30.8147 59.6297 30.2849 59.6297 29.6295C59.6297 28.9741 59.0999 28.4443 58.4445 28.4443Z" fill="#E31E25"/>
<path d="M6.29629 28.4443H1.55555C0.900139 28.4443 0.370361 28.9741 0.370361 29.6295C0.370361 30.2849 0.900139 30.8147 1.55555 30.8147H6.29629C6.9517 30.8147 7.48147 30.2849 7.48147 29.6295C7.48147 28.9741 6.9517 28.4443 6.29629 28.4443Z" fill="#E31E25"/>
<path d="M49.2759 8.67792L45.9242 12.0296C45.4608 12.493 45.4608 13.2421 45.9242 13.7055C46.1553 13.9366 46.4587 14.0527 46.7621 14.0527C47.0655 14.0527 47.369 13.9366 47.6001 13.7055L50.9518 10.3538C51.4152 9.89037 51.4152 9.14133 50.9518 8.67792C50.4884 8.21451 49.7381 8.2157 49.2759 8.67792Z" fill="#E31E25"/>
<path d="M12.3999 45.5539L9.04824 48.9056C8.58483 49.369 8.58483 50.118 9.04824 50.5814C9.27935 50.8125 9.58276 50.9287 9.88617 50.9287C10.1896 50.9287 10.493 50.8125 10.7241 50.5814L14.0758 47.2297C14.5392 46.7663 14.5392 46.0173 14.0758 45.5539C13.6124 45.0904 12.8633 45.0904 12.3999 45.5539Z" fill="#E31E25"/>
<path d="M47.6001 45.5539C47.1367 45.0904 46.3876 45.0904 45.9242 45.5539C45.4608 46.0173 45.4608 46.7663 45.9242 47.2297L49.2759 50.5814C49.507 50.8125 49.8104 50.9287 50.1138 50.9287C50.4172 50.9287 50.7207 50.8125 50.9518 50.5814C51.4152 50.118 51.4152 49.369 50.9518 48.9056L47.6001 45.5539Z" fill="#E31E25"/>
<path d="M12.3999 13.7054C12.6311 13.9365 12.9345 14.0527 13.2379 14.0527C13.5413 14.0527 13.8447 13.9365 14.0758 13.7054C14.5392 13.242 14.5392 12.493 14.0758 12.0296L10.7241 8.67788C10.2607 8.21447 9.51165 8.21447 9.04824 8.67788C8.58483 9.14129 8.58483 9.89032 9.04824 10.3537L12.3999 13.7054Z" fill="#E31E25"/>
<path d="M30.0001 15.4075C22.1577 15.4075 15.7778 21.7873 15.7778 29.6297C15.7778 30.2851 16.3076 30.8149 16.963 30.8149C17.6184 30.8149 18.1482 30.2851 18.1482 29.6297C18.1482 23.0946 23.4649 17.7778 30.0001 17.7778C30.6555 17.7778 31.1852 17.2481 31.1852 16.5927C31.1852 15.9372 30.6555 15.4075 30.0001 15.4075Z" fill="#E31E25"/>
</svg>
