<svg width="13" height="17" viewBox="0 0 13 17" fill="none" xmlns="http://www.w3.org/2000/svg">
<path d="M6.48605 0.770996C2.25605 0.770996 0.123047 3.804 0.123047 6.333C0.123047 7.866 0.704047 9.227 1.94605 9.734C2.15105 9.818 2.33305 9.738 2.39205 9.513L2.57405 8.796C2.63505 8.575 2.61105 8.496 2.44705 8.301C2.08805 7.879 1.85905 7.329 1.85905 6.554C1.85905 4.304 3.54205 2.29 6.24305 2.29C8.63505 2.29 9.94905 3.753 9.94905 5.702C9.94905 8.27 8.81205 10.436 7.12505 10.436C6.19305 10.436 5.49605 9.666 5.72005 8.721C5.98805 7.591 6.50605 6.374 6.50605 5.561C6.50605 4.832 6.11405 4.225 5.30605 4.225C4.35405 4.225 3.58805 5.209 3.58805 6.529C3.58805 7.37 3.87405 7.938 3.87405 7.938L2.72805 12.79C2.38805 14.23 2.67705 15.996 2.70305 16.175C2.71605 16.279 2.85205 16.306 2.91305 16.226C3.00105 16.111 4.13605 14.709 4.52005 13.311C4.63105 12.915 5.14705 10.866 5.14705 10.866C5.45805 11.455 6.36005 11.974 7.32205 11.974C10.185 11.974 12.126 9.366 12.126 5.871C12.123 3.231 9.88605 0.770996 6.48605 0.770996Z" fill="white"/>
</svg>
