<svg width="81" height="70" viewBox="0 0 81 70" fill="none" xmlns="http://www.w3.org/2000/svg">
<g clip-path="url(#clip0)">
<path fill-rule="evenodd" clip-rule="evenodd" d="M49.3482 15.4731L71.2637 53.4476H62.6948L49.7181 30.9773L45.6803 37.9434H36.3716L49.3482 15.4731Z" fill="#3C3C3B"/>
<path fill-rule="evenodd" clip-rule="evenodd" d="M40.4094 0L44.6939 7.42845C37.2654 20.2818 29.837 33.166 22.4085 46.0194H49.1016L53.3861 53.4478H9.55518L40.4094 0Z" fill="#C41622"/>
<path fill-rule="evenodd" clip-rule="evenodd" d="M40.4094 0L9.55518 53.4478L22.4085 46.0194L40.4094 0Z" fill="#E30613"/>
<path fill-rule="evenodd" clip-rule="evenodd" d="M9.55518 53.448L22.4085 46.0195L53.3861 53.448H9.55518Z" fill="#A51916"/>
<path fill-rule="evenodd" clip-rule="evenodd" d="M71.2636 53.4476H62.6947L49.3481 15.4731L71.2636 53.4476Z" fill="black"/>
<path fill-rule="evenodd" clip-rule="evenodd" d="M36.3716 37.9434H45.6803L49.3482 15.4731L36.3716 37.9434Z" fill="#575756"/>
<path fill-rule="evenodd" clip-rule="evenodd" d="M9.55518 53.4477L22.4085 46.0192L35.416 12.7607L21.7921 45.4952L9.55518 53.4477Z" fill="#EA5358"/>
<path fill-rule="evenodd" clip-rule="evenodd" d="M49.5947 18.1856L45.6802 37.9434L49.3482 15.4731L59.7048 44.9095L49.5947 18.1856Z" fill="#706F6F"/>
</g>
<g clip-path="url(#clip1)">
<path fill-rule="evenodd" clip-rule="evenodd" d="M4.8701 69.4759V68.2122C3.45222 68.1814 2.28093 67.7807 1.38705 66.9792C0.462351 66.2087 0 65.1607 0 63.8661C0 62.5099 0.431528 61.4619 1.29458 60.6913C2.15764 59.9515 3.32893 59.5508 4.8701 59.4892V58.5645H7.3668V59.4892C8.87715 59.5508 10.0793 59.9515 10.9423 60.6913C11.8054 61.431 12.2369 62.5099 12.2369 63.8661C12.2369 65.1298 11.7745 66.1778 10.8807 66.9792C9.98679 67.7807 8.8155 68.1814 7.3668 68.2122V69.4759H4.8701ZM4.8701 66.0854V61.616C4.06869 61.6776 3.51387 61.9242 3.14399 62.3249C2.77411 62.7256 2.58917 63.2496 2.58917 63.8969C2.55834 65.1915 3.32893 65.9313 4.8701 66.0854ZM7.3668 66.0854C8.90797 65.9313 9.67856 65.1915 9.67856 63.8661C9.67856 63.2188 9.49362 62.6948 9.12373 62.2941C8.75385 61.8934 8.16821 61.6776 7.39762 61.5851V66.0854H7.3668Z" fill="#222222"/>
<path fill-rule="evenodd" clip-rule="evenodd" d="M69.5068 69.9999V67.0717H70.4007C71.3254 65.9004 71.8186 64.051 71.8186 61.4926V58.8418H79.6477V67.0717H80.7882V69.9999H78.5997V69.1985H71.6953V69.9999H69.5068ZM73.1132 67.0717H77.151V60.9686H74.2228V61.8008C74.2228 64.1434 73.8529 65.9004 73.1132 67.0717Z" fill="#222222"/>
<path fill-rule="evenodd" clip-rule="evenodd" d="M24.7819 64.0202C24.7819 60.9995 22.316 58.5645 19.2953 58.5645C16.2746 58.5645 13.8396 60.9995 13.8396 64.0202C13.8396 67.0409 16.2746 69.4759 19.2953 69.4759C22.316 69.4759 24.7819 67.0409 24.7819 64.0202ZM22.4393 64.0202C22.4393 65.7463 21.0215 67.1642 19.2953 67.1642C17.5692 67.1642 16.1514 65.7463 16.1514 64.0202C16.1514 62.2941 17.5692 60.8762 19.2953 60.8762C21.0523 60.8762 22.4393 62.2941 22.4393 64.0202Z" fill="#222222"/>
<path fill-rule="evenodd" clip-rule="evenodd" d="M26.7856 58.8418H29.2823H32.3339C34.5223 58.8418 36.3101 60.6296 36.3101 62.818C36.3101 65.0065 34.5223 66.7942 32.3339 66.7942H29.2823V69.1676H26.7856C26.7856 65.7462 26.7856 62.294 26.7856 58.8418ZM29.2823 64.7907H31.964C33.0428 64.7907 33.9059 63.9277 33.9059 62.8488C33.9059 61.77 33.012 60.907 31.964 60.907H29.2823V64.7907Z" fill="#222222"/>
<path fill-rule="evenodd" clip-rule="evenodd" d="M60.0132 58.8418H62.5099H65.5614C67.7499 58.8418 69.5376 60.6296 69.5376 62.818C69.5376 65.0065 67.7499 66.7942 65.5614 66.7942H62.5099V69.1676H60.0132C60.0132 65.7462 60.0132 62.294 60.0132 58.8418ZM62.5099 64.7907H65.1915C66.2703 64.7907 67.1334 63.9277 67.1334 62.8488C67.1334 61.77 66.2395 60.907 65.1915 60.907H62.5099V64.7907Z" fill="#222222"/>
<path fill-rule="evenodd" clip-rule="evenodd" d="M38.0669 69.1985C38.0669 65.7462 38.0669 62.294 38.0669 58.8418H44.1391C45.7728 58.8418 47.129 60.198 47.129 61.8317C47.129 62.6023 46.8208 63.3112 46.3276 63.866C46.8208 64.4208 47.129 65.1914 47.129 66.0237C47.129 67.7806 45.7728 69.1985 44.1391 69.1985H38.0669ZM40.4711 60.8453V62.8488H43.8617C44.4165 62.8488 44.8481 62.3865 44.8481 61.8625C44.8481 61.3077 44.3857 60.8761 43.8617 60.8761H40.4711V60.8453ZM40.4711 64.9448V67.0717H43.8617C44.4165 67.0717 44.8481 66.5785 44.8481 65.9928C44.8481 65.4072 44.3857 64.914 43.8617 64.914H40.4711V64.9448Z" fill="#222222"/>
<path fill-rule="evenodd" clip-rule="evenodd" d="M47.7146 69.1985L52.0607 58.8418H54.4958L58.811 69.1985H56.0369L55.6054 68.0272H50.8586L50.4271 69.1985H47.7146ZM54.8656 66.0237L53.232 61.6159L51.5983 66.0237H54.8656Z" fill="#222222"/>
</g>
<defs>
<clipPath id="clip0">
<rect x="9.55518" width="61.7085" height="53.4478" fill="white"/>
</clipPath>
<clipPath id="clip1">
<rect y="58.5645" width="80.7882" height="11.4355" fill="white"/>
</clipPath>
</defs>
</svg>
